<?xml version="1.0" encoding="utf-8"?>
<!-- Generator: Adobe Illustrator 24.3.0, SVG Export Plug-In . SVG Version: 6.00 Build 0)  -->
<svg version="1.1" id="Layer_1" xmlns="http://www.w3.org/2000/svg" xmlns:xlink="http://www.w3.org/1999/xlink" x="0px" y="0px"
	 viewBox="0 0 160 40" style="enable-background:new 0 0 160 40;" xml:space="preserve">
<style type="text/css">
	.st0{fill:#05071C;}
	.st1{enable-background:new    ;}
	.st2{fill:#FFFFFF;}
</style>
<path class="st0" d="M30.39,37.07H9.09c-3.52,0-6.38-2.86-6.38-6.38V9.39c0-3.52,2.86-6.38,6.38-6.38h21.3
	c3.52,0,6.38,2.86,6.38,6.38v21.3C36.77,34.21,33.91,37.07,30.39,37.07z"/>
<g class="st1">
	<path class="st0" d="M59.41,21.88h-8.69v-3.37h12.72V30.4h-4v-4.33h-0.3v0.33c0,1.92-2.71,4.33-7.47,4.33
		c-6.97,0-11.56-4.56-11.56-11.69c0-7.33,4.82-12.09,12.06-12.09c5.95,0,10.14,3.3,11.27,8.39h-4.23c-1.12-2.97-3.47-4.76-7.04-4.76
		c-4.86,0-8.06,3.27-8.06,8.26c0,5.15,2.91,8.26,8.23,8.26C57.52,27.1,59.18,24.19,59.41,21.88z"/>
	<path class="st0" d="M69.84,30.4h-3.96V5.63h3.96v11.76h0.33c0-1.62,1.65-3.83,5.35-3.83c4.62,0,7.17,3.07,7.17,7.76v9.08h-4v-8.99
		c0-2.61-1.52-4.13-4.2-4.13c-3.04,0-4.66,1.92-4.66,4.53V30.4z"/>
	<path class="st0" d="M87.45,6.95c1.39,0,2.31,0.86,2.31,2.15c0,1.29-0.92,2.15-2.31,2.15c-1.39,0-2.31-0.86-2.31-2.15
		C85.14,7.81,86.06,6.95,87.45,6.95z M85.47,13.89h3.96V30.4h-3.96V13.89z"/>
	<path class="st0" d="M100.33,13.56c4.89,0,8.19,3.04,8.19,7.4c0,4.16-2.61,5.95-4.23,5.95v0.33c1.85,0,4.39,1.19,4.39,4.69
		c0,4.39-3.17,7.07-8.19,7.07c-5.15,0-8.19-2.91-8.19-7.76h3.96c-0.03,2.61,1.49,4.03,4.23,4.03c2.71,0,4.23-1.29,4.23-3.6
		c0-2.58-2.48-2.91-4.39-2.91c-4.92,0-8.19-3.04-8.19-7.6S95.41,13.56,100.33,13.56z M100.33,25.05c2.91,0,4.23-1.19,4.23-3.9
		c0-2.38-1.65-3.9-4.23-3.9c-2.61,0-4.26,1.52-4.26,3.9C96.07,23.5,97.76,25.05,100.33,25.05z M107.57,9.76
		c1.49,0,2.48,0.89,2.48,2.25c0,1.35-0.99,2.25-2.48,2.25c-1.49,0-2.48-0.89-2.48-2.25C105.09,10.65,106.08,9.76,107.57,9.76z"/>
	<path class="st0" d="M116.45,30.4h-3.96V5.63h3.96v11.76h0.33c0-1.62,1.65-3.83,5.35-3.83c4.62,0,7.17,3.07,7.17,7.76v9.08h-4
		v-8.99c0-2.61-1.52-4.13-4.2-4.13c-3.04,0-4.66,1.92-4.66,4.53V30.4z"/>
	<path class="st0" d="M140.43,13.56c5.19,0,8.66,3.44,8.69,8.59v8.26h-4v-3.37l-0.3,0.03v0.3c0,1.52-1.88,3.37-5.45,3.37
		c-4.56,0-7.63-3.3-7.63-8.32C131.75,16.86,135.18,13.56,140.43,13.56z M140.34,27c3.37,0,4.79-1.98,4.79-4.86
		c0-2.97-1.82-4.86-4.69-4.86c-2.84,0-4.76,1.95-4.76,4.86C135.68,25.12,137.46,27,140.34,27z"/>
	<path class="st0" d="M153.98,26.27c1.49,0,2.44,0.89,2.44,2.21c0,1.35-0.96,2.25-2.44,2.25c-1.45,0-2.41-0.89-2.41-2.25
		C151.57,27.17,152.52,26.27,153.98,26.27z"/>
</g>
<g>
	<path class="st2" d="M24.94,16.49L25,16.67c0.14,0.44-0.1,0.92-0.54,1.06l-13.94,4.53c-0.44,0.14-0.92-0.1-1.06-0.54L9.4,21.54
		c-0.14-0.44,0.1-0.92,0.54-1.06l13.94-4.53C24.32,15.81,24.8,16.05,24.94,16.49z"/>
	<path class="st2" d="M30.02,18.2l0.06,0.18c0.14,0.44-0.1,0.92-0.54,1.06L15.6,23.97c-0.44,0.14-0.92-0.1-1.06-0.54l-0.06-0.18
		c-0.14-0.44,0.1-0.92,0.54-1.06l13.94-4.53C29.41,17.52,29.88,17.76,30.02,18.2z"/>
	<path class="st2" d="M26.91,22.57l0.06,0.18c0.14,0.44-0.1,0.92-0.54,1.06l-13.94,4.53c-0.44,0.14-0.92-0.1-1.06-0.54l-0.06-0.18
		c-0.14-0.44,0.1-0.92,0.54-1.06l13.94-4.53C26.3,21.89,26.77,22.13,26.91,22.57z"/>
	<path class="st2" d="M28.03,12.05l0.06,0.18c0.14,0.44-0.1,0.92-0.54,1.06l-13.94,4.53c-0.44,0.14-0.92-0.1-1.06-0.54l-0.06-0.18
		c-0.14-0.44,0.1-0.92,0.54-1.06l13.94-4.53C27.41,11.37,27.88,11.61,28.03,12.05z"/>
</g>
</svg>
