<?xml version="1.0" encoding="utf-8"?>
<!-- Generator: Adobe Illustrator 24.3.0, SVG Export Plug-In . SVG Version: 6.00 Build 0)  -->
<svg version="1.1" id="Layer_1" xmlns="http://www.w3.org/2000/svg" xmlns:xlink="http://www.w3.org/1999/xlink" x="0px" y="0px"
	 viewBox="0 0 120 32" style="enable-background:new 0 0 120 32;" xml:space="preserve">
<style type="text/css">
	.st0{fill:#05071C;}
	.st1{enable-background:new    ;}
	.st2{fill:#FFFFFF;}
</style>
<path class="st0" d="M22.99,28.89H7.49c-2.62,0-4.75-2.13-4.75-4.75V8.65c0-2.62,2.13-4.75,4.75-4.75h15.49
	c2.62,0,4.75,2.13,4.75,4.75v15.49C27.73,26.76,25.61,28.89,22.99,28.89z"/>
<g class="st1">
	<path class="st0" d="M44.34,17.75h-6.37v-2.47h9.33V24h-2.93v-3.17h-0.22v0.24c0,1.41-1.99,3.17-5.48,3.17
		c-5.11,0-8.48-3.34-8.48-8.58c0-5.38,3.54-8.87,8.84-8.87c4.36,0,7.44,2.42,8.26,6.16h-3.1c-0.82-2.18-2.54-3.49-5.16-3.49
		c-3.56,0-5.91,2.4-5.91,6.06c0,3.78,2.13,6.06,6.03,6.06C42.96,21.58,44.17,19.44,44.34,17.75z"/>
	<path class="st0" d="M52,24h-2.91V5.83H52v8.63h0.24c0-1.19,1.21-2.81,3.93-2.81c3.39,0,5.26,2.25,5.26,5.69V24H58.5v-6.59
		c0-1.91-1.11-3.03-3.08-3.03c-2.23,0-3.42,1.41-3.42,3.32V24z"/>
	<path class="st0" d="M64.92,6.8c1.02,0,1.7,0.63,1.7,1.58s-0.68,1.58-1.7,1.58s-1.7-0.63-1.7-1.58S63.9,6.8,64.92,6.8z
		 M63.47,11.88h2.91V24h-2.91V11.88z"/>
	<path class="st0" d="M74.37,11.64c3.59,0,6.01,2.23,6.01,5.43c0,3.05-1.91,4.36-3.1,4.36v0.24c1.36,0,3.22,0.87,3.22,3.44
		c0,3.22-2.33,5.19-6.01,5.19c-3.78,0-6.01-2.13-6.01-5.69h2.91c-0.02,1.91,1.09,2.96,3.1,2.96c1.99,0,3.1-0.94,3.1-2.64
		c0-1.89-1.82-2.13-3.22-2.13c-3.61,0-6.01-2.23-6.01-5.57C68.36,13.87,70.76,11.64,74.37,11.64z M74.37,20.07
		c2.13,0,3.1-0.87,3.1-2.86c0-1.74-1.21-2.86-3.1-2.86c-1.91,0-3.12,1.11-3.12,2.86C71.25,18.93,72.48,20.07,74.37,20.07z
		 M79.68,8.85c1.09,0,1.82,0.65,1.82,1.65c0,0.99-0.73,1.65-1.82,1.65c-1.09,0-1.82-0.65-1.82-1.65
		C77.86,9.51,78.59,8.85,79.68,8.85z"/>
	<path class="st0" d="M86.2,24h-2.91V5.83h2.91v8.63h0.24c0-1.19,1.21-2.81,3.93-2.81c3.39,0,5.26,2.25,5.26,5.69V24H92.7v-6.59
		c0-1.91-1.11-3.03-3.08-3.03c-2.23,0-3.42,1.41-3.42,3.32V24z"/>
	<path class="st0" d="M103.8,11.64c3.8,0,6.35,2.52,6.37,6.3V24h-2.93v-2.47l-0.22,0.02v0.22c0,1.12-1.38,2.47-4,2.47
		c-3.34,0-5.6-2.42-5.6-6.11C97.43,14.06,99.95,11.64,103.8,11.64z M103.73,21.5c2.47,0,3.51-1.45,3.51-3.56
		c0-2.18-1.33-3.56-3.44-3.56c-2.08,0-3.49,1.43-3.49,3.56C100.31,20.12,101.62,21.5,103.73,21.5z"/>
	<path class="st0" d="M113.74,20.97c1.09,0,1.79,0.65,1.79,1.62c0,0.99-0.7,1.65-1.79,1.65c-1.07,0-1.77-0.65-1.77-1.65
		C111.97,21.62,112.67,20.97,113.74,20.97z"/>
</g>
<g>
	<path class="st2" d="M19.05,13.79l0.04,0.13c0.11,0.32-0.07,0.67-0.4,0.78L8.47,18.02c-0.32,0.11-0.67-0.07-0.78-0.4L7.65,17.5
		c-0.11-0.32,0.07-0.67,0.4-0.78l10.23-3.32C18.6,13.29,18.95,13.47,19.05,13.79z"/>
	<path class="st2" d="M22.79,15.05l0.04,0.13c0.11,0.32-0.07,0.67-0.4,0.78L12.2,19.28c-0.32,0.11-0.67-0.07-0.78-0.4l-0.04-0.13
		c-0.11-0.32,0.07-0.67,0.4-0.78l10.23-3.32C22.33,14.54,22.68,14.72,22.79,15.05z"/>
	<path class="st2" d="M20.5,18.25l0.04,0.13c0.11,0.32-0.07,0.67-0.4,0.78L9.92,22.48c-0.32,0.11-0.67-0.07-0.78-0.4L9.1,21.96
		c-0.1-0.33,0.07-0.67,0.4-0.78l10.23-3.32C20.05,17.75,20.4,17.93,20.5,18.25z"/>
	<path class="st2" d="M21.32,10.54l0.04,0.13c0.11,0.32-0.07,0.67-0.4,0.78l-10.23,3.32c-0.32,0.11-0.67-0.07-0.78-0.4l-0.04-0.13
		c-0.11-0.32,0.07-0.67,0.4-0.78l10.23-3.32C20.87,10.03,21.21,10.21,21.32,10.54z"/>
</g>
</svg>
